<svg xmlns="http://www.w3.org/2000/svg" width="192" height="192"><path fill="#f1f2f4" d="M0 0h192v192H0z"/><path fill="#f1f2f4" d="M134 58c2.73 2.39 3.85 3.54 5 7l3 2c6.86 10.59 8.55 23.12 6.38 35.44A57 57 0 0 1 141 119l-3 1c-.59 1.95-.59 1.95-1 4l-2 2h-3l-1 3a85 85 0 0 1-7.19 3.63l-2 .94c-11.16 5.11-23.38 4.53-34.81.43-3.52-1.73-6.92-3.55-10-6v-2l-2.44-.75L72 124a70 70 0 0 1-1-4l-1.86-.84c-4.67-2.53-6.42-8.8-7.9-13.66C58.82 94.8 59.64 84.44 63 74l2-2 .9-2.35C69.43 61.12 78.04 54.48 86.4 51c17.42-6.04 32.27-2.66 47.6 7"/><path fill="#4d4d4d" d="M136 44v2l1.76.81C149.34 52.95 155.91 65.04 160 77c3.85 14.21 1.34 30.52-5.69 43.19-7.97 12.34-17.77 20.41-31.31 25.81l-2.33.98c-14.1 5.13-29.02 1.87-42.67-2.98l-3-2v-2h-3v-2l-1.8-.84c-11.4-5.98-18.13-18.66-21.95-30.48-1.34-5.47-1.45-10.95-1.5-16.55l-.03-2.24c.02-3.85.3-6.58 2.28-9.89l.75-3.56c1.9-8 6.55-15.58 12.25-21.44h2l.77-1.81C69.37 43 80.82 39.2 89.25 36.75c16.9-4.42 31.4.14 46.75 7.25M70.17 62.83C67.3 66.03 65.3 68.86 64 73l-1.56 3.94c-3.96 10.75-3.79 23.6.92 34.1 2.61 5.78 2.61 5.78 7.64 8.96l.38 1.94L72 124c2.49 1.3 2.49 1.3 5 2v2c10.28 8.16 22.51 10 35.23 8.79 7.27-1.2 13.48-5.15 19.77-8.79v-2l1.88-.37c2.31-.5 2.31-.5 4.12-2.63v-3l1.8-.58c3.14-2.03 4.06-4.82 5.39-8.17l1.54-3.67c4.1-11.54 3.09-24.21-1.97-35.3-2.12-4.37-2.12-4.37-5.76-7.28l-1.06-2.19c-5.11-7.42-15.83-12.24-24.38-14.43-17.13-2.51-31.23 2.28-43.4 14.45"/><path fill="#ee8240" d="M109 17c.25 6.63.25 6.63-2 10a62 62 0 0 1-7.62.19l-2.14-.04L92 27v2l-12 2v2l-1.94.66c-5.35 1.96-9.4 4-13.49 7.97C63 43 63 43 60.87 44c-2.22.93-2.22.93-2.87 4.01-2.44 2.69-2.44 2.69-5 5h-2l-.81 2.19C49 58 49 58 47.56 60.35c-8.63 14.7-9.44 32-5.55 48.28 1.86 6.33 4.2 12.44 7.65 18.09C51 129 51 129 51 131h2c2.06 2.42 3.93 4.97 5.83 7.52 2.26 2.58 4.22 3.8 7.17 5.48l2.86 2.49c3.15 2.67 6.53 4.28 10.39 5.7l2.06.77c6.18 2.17 12.32 2.97 18.84 3.37 5.39.37 5.39.37 7.85 1.96 1.86 3.18 1.23 6.1 1 9.71-2.2 2.2-6.52 1.36-9.5 1.4A61 61 0 0 1 74 163v-2l-2.01-.26c-6-.96-8.93-2-12.99-6.74l-2.75-1.81c-7.24-4.88-12.66-10-16.86-17.7-1.4-2.6-1.4-2.6-3.4-5.31-2.2-3.51-3.46-6.99-4.62-10.93l-.64-2.15A447 447 0 0 1 29 110l-.76-2.7C24.68 92.44 26.04 73.2 34 60l1.27-2.5C41.97 44.47 50.9 31.5 65 26q1.94-1.4 3.81-2.87C78.06 16.88 98.36 11.68 109 17"/><path fill="#f6f0e8" d="M109 19h1c.3 3.33.4 5.35-1.37 8.25C103.68 30.55 97.84 31 92 31v2l-2 1 2 3-2.9.81c-15.73 4.67-26.87 13.32-34.97 27.75A51 51 0 0 0 49 80l-1 2c-1.12 19.04 2.66 33.9 14.97 48.84 2.74 2.91 5.7 4.95 9.03 7.16v2h3v2l2.06.55 2.82.76 3.07.83a97 97 0 0 1 5.44 1.7c7.74 2.67 15.5 2.87 23.61 3.16v4l-4 2v2l4 1v10h-2l-2 4H96v-2l-1.98.1c-7.22.22-14.34-.13-21.02-3.1-2.15-2.3-2.87-4-4-7l5 1v2l8.08 2.2q3.36.93 6.67 1.99c6.19 1.57 12.9.96 19.25.81l.13-3.87.07-2.18c-.02-2.19-.02-2.19-2.2-3.95-2.8-.37-5.56-.65-8.37-.87-11.83-1.15-23.56-3.77-32.13-12.69-1.45-1.54-1.45-1.54-3.45-2.38-2.53-1.3-3.95-2.91-5.8-5.06l-1.86-2.12C53 133 53 133 53 131h-2c-9.44-16.2-15.71-34.74-10.81-53.62A160 160 0 0 1 42 72l1.17-3.35C47.24 57.54 47.24 57.54 51 53h2l.81-1.94C55 49 55 49 58 48l.31-1.81c1.08-3.44 3.7-4.35 6.69-6.19l2.5-2.06C71.64 34.73 74.72 33 80 33v-2l3.75-1 2.11-.56C88 29 88 29 92 29v-2l15-1z"/><path fill="#f27e36" d="m53 37 6 2-1 5h-2l-.81 1.94C54 48 54 48 51 49l-.94 3.44L49 56l-1.99.9c-2.25.94-2.25.94-2.84 3.48l-.42 2.74-.45 2.76L43 68h-1l-3 12h-3v20l-2 1c-2.59-2.98-3.38-4.8-3.36-8.74v-2.74l.05-2.83-.01-2.8c.04-5.34.57-9.84 2.32-14.89h2l.18-1.83.26-2.42.24-2.39c.3-2.18.74-4.24 1.32-6.36h2l1-3 2-1q1.52-2.59 3-5.21c3.09-5.49 3.09-5.49 7-6.79z"/><path fill="#505050" d="M150 59c6.25 5.46 9.66 14.98 11 23 .13 2.7.1 5.3 0 8-3.01-2.01-3.84-2.7-5-6 .38-2.25.38-2.25 1-4h-1l-1.31 2.94C153 86 153 86 150 87l.32 2.48.37 3.27.38 3.23c-.08 3.43-.76 4.57-3.07 7.02l.1-3.08c.26-10.84-.3-20.44-6.1-29.92-.5-2.62-.5-2.62 0-5 2.38-1.82 3.96-3 7-3z"/><path fill="#f17f39" d="m106 20-1 4-3.36.08-4.39.17-2.21.04c-3.5.16-5.55.27-8.2 2.65L85 29c-2.76 1.01-2.76 1.01-5.69 1.69-3.45.58-3.45.58-6.31 2.31q-2.5.06-5 0l-1 5-7 1v-2h-2c.2-1.84.2-1.84 1-4 2.15-1.34 2.15-1.34 4.81-2.5 2.92-1.27 4.91-2.2 7.12-4.52C79.58 17.71 95.09 18.93 106 20"/><path fill="#dc966a" d="M36 56c1.04 3.22.94 5.41.19 8.69l-.52 2.38C35 69 35 69 33 70c-.5 2.65-.85 5.2-1.12 7.88l-.25 2.42C30.2 95.24 28.99 110.7 37 124c.69 3.31.69 3.31 1 6h4l.75 3.88c.77 3.39.77 3.39 3.38 5.62l1.87.5v4l5 1 1 5c-5.47-3.54-9.17-7.11-12.57-12.67-1.38-2.33-1.38-2.33-2.96-4.35-5.21-6.94-7.24-14.7-9.47-22.98l-.75-2.7C24.65 92.42 26.1 73.26 34 60q1.02-2 2-4"/><path fill="#464749" d="m156 78 3 1-1 4-1-2c.48 2.6 1.03 4.04 2.63 6.19 2 4.1 1.15 7.42.37 11.81l-.56 3.56L159 105h-4l-1 6-3-1 2-1v-2l-3 1-2-1c.93-5.71.93-5.71 1.56-8.31.42-2.56.37-4.68.25-7.25-.06-4.14-.06-4.14 2.06-6.69L154 83c1.25-2.63 1.25-2.63 2-5"/><path fill="#4f5050" d="M160 96h1c-.31 12.68-5.27 23.13-13 33-1.05-1.83-1.05-1.83-2-4 .88-2.75.88-2.75 2-5l-4 1c-2-3-2-3-1.87-5.12 1.25-4.13 3.04-7.98 4.87-11.88l1.88 1.5c1.96 1.7 1.96 1.7 4.12 1.5l-1 3 2 1v-6l4-1z"/><path fill="#e2824b" d="M49 55c0 3.64-1.11 4.93-3 8-7.35 17.25-8.19 34.53-1.8 52.37a76 76 0 0 0 5.46 11.34C51 129 51 129 51 131h2l-1 2-4-1v-4l-3-1c-.84-1.96-.84-1.96-1.5-4.37-.86-3.37-.86-3.37-2.98-6-5.36-5.75-3.76-17.5-3.65-24.75l.03-3.48.1-8.4h2l.44-3.12L40 73l.44-3.25C41 67 41 67 43 64l.88-3.56C45 57 45 57 47.12 55.56z"/><path fill="#484746" d="M51 75h1v5h2l1-2 2 5h-2l1 2 3-2v16h-2l-2-2c-2.78-.2-4.49-.26-7 1q-.12-4.35-.19-8.69l-.07-2.47c-.06-4.78.12-7.96 3.26-11.84"/><path fill="#faedde" d="M106 13v2l3 1c-2.54 1.27-4.62.98-7.4.88-12.95-.4-25.13 1.11-35.49 9.53C64 28 64 28 61.56 28.96c-3.07 1.25-5.2 2.94-7.75 5.04l-2.6 2.13C48.98 37.96 48.98 37.96 47 40v-4h3l.23-1.8c1.03-2.96 2.48-3.76 5.08-5.45l2.37-1.58C60 26 60 26 64 26v-6c8.82-3.13 17.1-5 26.43-5.71 2.81-.24 2.81-.24 6.38-1.41 3.5-.97 5.7-.73 9.19.12"/><path fill="#e68447" d="m96.03 15.86 2.4.02 2.4-.02c5.92.01 5.92.01 8.17 1.14.25 6.63.25 6.63-2 10-3.23.48-3.23.48-7.19.63-5.02.2-9.85.59-14.81 1.37l1-2h2l1-3h16l1-4a135 135 0 0 0-27 2c1-2 1-2 3.03-2.82l2.47-.74c8.41-2.57 8.41-2.57 11.53-2.58"/><path fill="#454747" d="M71 126c2.38.25 2.38.25 5 1 1.38 1.81 1.38 1.81 2 4-.37 2.25-.37 2.25-1 4l2.63-1.12c3.93-1.02 5.7-.45 9.37 1.12v2l-2 2v3l-7 1 1-2h-5v-2l-2.75-.25c-3.65-.84-4.88-1.93-7.25-4.75 1-3 1-3 4-5zm12 9-1 2h2z"/><path fill="#eee4d5" d="m61 135 3.81.38 2.15.2C69 136 69 136 72 138v2l3 1h-3c1.7 5.45 1.7 5.45 6.13 8.81A93 93 0 0 0 91 153v2l1.76-.04c4.54-.05 8.77.12 13.24 1.04v1a66 66 0 0 1-24-3l-2.7-.84c-5.95-2.12-11.34-5.11-15.3-10.16v-4l-3-1z"/><path fill="#fae1d1" d="m106 157 6 1v10h-2l-2 4H96v-2l-1.98.1c-7.22.22-14.34-.13-21.02-3.1-2.15-2.3-2.87-4-4-7l5 1v2l8.08 2.2q3.36.93 6.67 1.99c6.19 1.57 12.9.96 19.25.81l.13-3.81.07-2.15c-.07-2.35-.07-2.35-2.2-5.04"/><path fill="#4a4a4b" d="M76 44v3c1.44 1.69 1.44 1.69 3 3l-1 2h-2v2l3-1c-.26 3.48-1.22 4.19-3.94 6.56L72 62l-2 3a57 57 0 0 1-7-4l2-5h4l-.31-3.19C69 49 69 49 71.38 46.06 74 44 74 44 76 44"/><path fill="#e9e6e3" d="M48 105a236 236 0 0 1 3.45 7.1c4.32 9.08 9.27 16.83 16.55 23.9l-4-1-1 2v-2h-2l1 3 2 1v3c-1.87-.31-1.87-.31-4-1-2-2.99-2.33-4.58-3-8-.78-2.23-.78-2.23-2-4l-3-1c-.56-1.94-.56-1.94-1-4l-2-2h3l-1.44-4.44-.8-2.5c-.58-2.02-.58-2.02-1.76-3.06q-.06-3.5 0-7"/><path fill="#f7dec8" d="M109 19h1c.3 3.33.4 5.35-1.37 8.25C103.68 30.55 97.84 31 92 31v2l-2.23.11c-7.35.49-7.35.49-13.77 3.89l-2.75.88L71 39c-.9 2.55-.9 2.55-1 5l-1-2h-5a37.5 37.5 0 0 1 12-9h4v-2l3.75-1 2.11-.56C88 29 88 29 92 29v-2l15-1z"/><path fill="#f77e33" d="M76 158c24.94-.37 24.94-.37 30 3l-1 4c-6.5 1.17-11.04.78-17.34-1.18-2.42-.75-4.8-1.3-7.28-1.82L77 161z"/><path fill="#edeef0" d="m104.81 47.94 3.52.03L111 48l-4 2 5 4a43 43 0 0 1-10-3l-1 3-6.75.63-3.8.35C87.16 55 85.7 54.78 83 53q2.34-.98 4.69-1.94l2.63-1.09c4.92-1.78 9.27-2.08 14.5-2.03"/><path fill="#fae9d2" d="m44 40 3 1-1.61 2.13c-3.6 4.83-7.02 9.5-9.53 15C35 60 35 60 33.98 61.72 30.02 68.52 29.23 76.32 28 84h-1q-.08-3.56-.12-7.12l-.05-2.02C26.78 70.5 27.4 67.04 29 63h2l1-5h3l1-7h2v-3l2-1v-3h2z"/><path fill="#df844a" d="M36 56c1.04 3.22.94 5.41.19 8.69l-.52 2.38C35 69 35 69 33 70a106 106 0 0 0-1.06 8.06l-.25 2.43A497 497 0 0 0 30 104h-1c-1.49-8.73-1.06-17.27-.25-26.06l.19-2.57C29.48 69.46 31.06 65.13 34 60z"/><path fill="#d8956c" d="M94 157q2.91-.12 5.81-.19l3.27-.1c2.92.29 2.92.29 4.8 1.54 2.03 3.16 1.36 6.08 1.12 9.75-2.24 2.24-6.89 1.25-9.91 1.26-6.01-.07-11.41-1.28-17.09-3.26v-1l1.91.22c7.72.8 15.34.88 23.09.78v-6l-3.12-.44q-4.95-.72-9.88-1.56z"/><path fill="#e78f59" d="M38 86h1l.3 3.7c1.19 13.61 3.47 25.23 10.53 37.16C51 129 51 129 51 131h2l-1 2-4-1v-4l-3-1c-2.33-3.37-2.43-7.03-3-11l-.96-1.92c-4.2-8.4-3.26-18.97-3.04-28.08"/><path fill="#f7dac4" d="m43 140 3.06 2.63 1.94 1.66 3.78 3.27a99 99 0 0 0 9.16 7.19L64 157v2l4 1c-6.75.13-6.75.13-9-1l-.25-1.94L58 155c-3-1.3-3-1.3-6-2v-3l-8-1z"/><path fill="#fce7d3" d="M26 85h1l.14 1.7c.92 11.32 2.08 22.27 4.86 33.3l-3-1-.31-3.12c-.45-3.81-.45-3.81-2.22-6.55-1.9-4.32-1.84-7.86-1.72-12.52l.02-2.44c.04-3.44.13-6.07 1.23-9.37"/><path fill="#f77c32" d="M63 147h2v2h3v2h5l1 5q-2.4.04-4.81.06l-2.71.04C64 156 64 156 61 155v-5l2-1z"/><path fill="#fadbc2" d="M70 147c3.65.55 6.66 1.72 10.02 3.23 3.54 1.37 7.26 2.05 10.98 2.77v2l1.76-.04c4.54-.05 8.77.12 13.24 1.04v1c-11.75.56-23.52-1.32-34-7z"/><path fill="#fae2cb" d="M43 112h2l2 4.38 1.13 2.46C49 121 49 121 49 123l3 1 .38 1.81c.46 2.48.46 2.48 3.18 4.13C58 132 58 132 58.31 134.75L58 137a105 105 0 0 1-5-4v-2h-2l-3.44-6.12-1.93-3.45A27 27 0 0 1 43 112"/><path fill="#f47f30" d="m99.88 19.44 3.49.3L106 20l-1 4H90v-3l-3-1c4.46-.91 8.35-.98 12.88-.56"/><path fill="#f6ddc3" d="m69 160 5 1v2a684 684 0 0 0 19 5v1c-14.85.68-14.85.68-21-3-2.06-3.19-2.06-3.19-3-6"/><path fill="#e19364" d="M92 28c-3.82 2.39-7.6 2.56-12 3v2l-1.9.66A52 52 0 0 0 62 43c1.2-3.41 2.33-5.56 5-8l1-2c1.78-.69 1.78-.69 4.08-1.29l2.52-.66 2.65-.68 2.6-.69C84.04 28.6 87.67 27.88 92 28"/><path fill="#f5f1f2" d="m45 104 3 1 .38 3.38c.27 3.65.27 3.65 2.62 5.62.13 2.63.13 2.63 0 5l2 1-1 2c-1.87-.25-1.87-.25-4-1-2.29-3.4-2.38-6.73-2.62-10.75l-.23-3.55z"/><path fill="#f8f3f4" d="m44 78 2 1c1.08 5.09.97 9.77.56 14.94L46.4 96l-.4 5h-1l-1-5h-2c-.1-5.77-.09-11.32 1-17z"/><path fill="#dd8953" d="M38 130h4l.75 3.88c.77 3.39.77 3.39 3.38 5.62l1.87.5v4l5 1 1 5c-7.9-5.11-12.68-11.18-16-20"/><path fill="#dc9a6a" d="M49 55c0 3.64-1.11 4.93-3 8a99 99 0 0 0-6 20h-1c-.25-6.92.04-13.06 4-19l.88-3.56C45 57 45 57 47.12 55.56z"/><path fill="#f9f1e8" d="m89 10 8.38.44 2.4.12c6 .33 6 .33 8.22 1.44v2h3c1.18 3.67 1.07 7.17 1 11h-3l-.15-1.93-.22-2.5-.21-2.5L108 16l-2-1v-2l-2.16.04c-5.4.05-10.52-.1-15.84-1.04z"/><path fill="#fad7ba" d="M65 23h5c-2.48 2.12-4.72 3.87-7.69 5.25-5.67 3-10.78 7.22-15.31 11.75v-4h3l.23-1.8c1.03-2.96 2.48-3.76 5.08-5.45l2.37-1.58C60 26 60 26 64 26z"/><path fill="#f7d1b0" d="m60 43 2 1a259 259 0 0 1-2.31 4l-1.3 2.25L57 52h-3v2h-2l-.37 2.44L51 59l-2 1c-.66 2.53-.66 2.53-1 5h-2l1 4h-3c1.4-5.95 3.89-10.76 7-16h2l.81-1.94C55 49 55 49 58 48c.66-1.98.66-1.98 1-4z"/><path fill="#ea8345" d="M105 160h2v6c-8.88 2.96-18.25.34-27-2v-1c4.89-.18 9.46-.32 14.19 1.06 4.25 1.05 6.6.82 10.81-.06z"/><path fill="#5e6160" d="m74 125 3 1v2c3.34 1.74 6.77 3.19 10.25 4.63l3.27 1.35L93 135c-3.1 1-4.86.95-7.94-.06-3.03-.86-3.9-.99-7.06-.07L76 136l1-3-1-2h2v-2l-3-1zm9 10 1 2-2-1z"/><path fill="#4e4f51" d="M154 80v5l-4 2 .32 2.48.37 3.27.38 3.23C151 99 151 99 148 103V81c5-1 5-1 6-1"/><path fill="#edebe9" d="m89 32 3 4a94 94 0 0 1-10.75 4.63l-3.55 1.35L75 43v-3l6-1-1-3c2.97-1.9 5.52-3.35 9-4"/><path fill="#eb8342" d="m31 107 2 1c.5 2.07.5 2.07.88 4.69.86 4.73 1.96 7.67 5.12 11.31h3l-1 5-3 1-2.91-7.26-2.02-5.01C31.59 114.03 30.63 111 31 107"/><path fill="#e7e8ea" d="M164 80h1q.08 2.94.13 5.88l.07 3.3C165 92 165 92 163 94c-.46 1.97-.46 1.97-.62 4.13L162 102h-1V82l2 1z"/><path fill="#d48f60" d="m90 16 8.38-.06 2.4-.03c6-.02 6-.02 8.22 1.09.25 6.63.25 6.63-2 10-3.62.19-3.62.19-7 0l6-3 1-6-17-1z"/><path fill="#cdcecf" d="M134 141c-.56 1.88-.56 1.88-2 4-3.62 1.25-3.62 1.25-7 2l1 3-6 1 2-2-5-1a50 50 0 0 1 9.06-4.62l3.23-1.36C132 141 132 141 134 141"/><path fill="#fbd8ba" d="M42 72c1.08 3.38.97 6.17.63 9.69l-.28 2.95C42 87 42 87 41 88q-.11 4.28-.06 8.56l.01 2.45L41 105h-1c-1.8-11.37-1.82-22.07 2-33"/><path fill="#e7e5df" d="m64 48 2 2-3.81 4.31-2.15 2.43A114 114 0 0 1 55 62l-2-1 1-2 2 1 1-8 3-1 1-2z"/><path fill="#f6f2f4" d="M81 33c2.06.44 2.06.44 4 1l-2 1.38L81 37v2l-6 1v2l-4-1c.25-1.9.25-1.9 1-4 1.81-1.01 1.81-1.01 4-1.69 2.75-.74 2.75-.74 5-2.31"/><path fill="#faf0e5" d="M26 74h1l.06 5.31.04 3C27 85 27 85 26 88q-.35 4.09-.56 8.19l-.13 2.27L25 104h-1q-.07-5.93-.11-11.85-.02-3-.07-6.02l-.02-3.81-.03-3.52C24 76 24 76 26 74"/><path fill="#dd996d" d="m89 18-7.12 2.84a290 290 0 0 0-5.66 2.35l-2.66 1.12-2.43 1.05C69 26 69 26 66 25c15.72-9.2 15.72-9.2 23-7"/><path fill="#f5dac1" d="M106 13v2l3 1c-3.1 1.55-6.26.83-9.62.56l-2.14-.16L92 16c1-2 1-2 4.19-3.19 3.77-.8 6.1-.71 9.81.19"/><path fill="#fbdcc4" d="M32 120c2.08 2.08 2.5 3.1 3.38 5.81 1.3 3.7 3.1 6.18 5.62 9.19a41 41 0 0 1 2 5h-3c-1.46-2.65-2-3.9-2-7h-3l-1.5-4.25-.84-2.39C32 124 32 124 32 120"/><path fill="#de9e6f" d="M38 86h1l.33 3.84.48 5.1.21 2.51c.51 5.2 1.52 9.7 3.46 14.54.61 2.36.29 3.73-.48 6.01-5.81-9.77-5.27-21-5-32"/><path fill="#dc8f5f" d="M36 56c1 3.16.97 5.34.25 8.56l-.48 2.32C34.9 69.28 33.9 70.34 32 72l-2 2c-.57-5.7 1.33-9.18 4-14z"/><path fill="#d78c5c" d="M94 157q2.91-.12 5.81-.19l3.27-.1c2.92.29 2.92.29 4.79 1.61 1.73 2.58 1.45 4.66 1.13 7.68l-2 2h-3v-2h3v-6l-3.12-.44q-4.95-.72-9.88-1.56z"/><path fill="#e6e1de" d="M98 149h14v4l-7 2-1-4-6-1z"/><path fill="#cfd0cd" d="m80 144 16 4v1q-2.37.62-4.75 1.19l-2.67.66C86 151 86 151 83.8 149.8 82 148 82 148 80 144"/><path fill="#f8e6d2" d="m61 130 7 5-2 1-2-1-1 2v-2h-2l1 3 2 1v3c-1.87-.31-1.87-.31-4-1-2-3-2-3-2-6q1.47-1.53 3-3z"/><path fill="#525355" d="M141 118c1.19 1.69 1.19 1.69 2 4-.87 2.69-.87 2.69-3 5-2.73.74-5.14.86-8 1v-2l2.44-1.44c2.85-1.36 2.85-1.36 3.56-4.56z"/><path fill="#d98e5a" d="M61 155c7.89.79 14.28 5.08 21 9-2.6.93-3.64 1.15-6.25.06L74 163v-2l-2.08-.3-2.73-.45-2.71-.42c-2.99-1-3.86-2.19-5.48-4.83"/><path fill="#f9d3b9" d="m44 40 3 1-1.61 2.13C41.33 48.58 37.81 53.8 35 60c-1.6-3.2-.03-5.72 1-9h2v-3l2-1v-3h2z"/><path fill="#5b5c5e" d="M123 133c-1.16 3.48-2.1 4.78-5 7-3.75.25-3.75.25-7 0l2-1v-2l-3-1 1.9-.4 2.47-.54 2.46-.52c2.28-.57 3.82-1.54 6.17-1.54"/><path fill="#595957" d="m72 44 2 1-1.94 2.13c-2.22 3.1-2.71 5.12-3.06 8.87l-4-1-1-4z"/><path fill="#dd8b55" d="M47 42c0 3.34-.55 4.26-2.31 7l-1.3 2.06A26 26 0 0 1 39 56h-2c1.34-5.51 4.03-9.09 8-13z"/><path fill="#dd8f5b" d="m75 151 2.63.84 3.5 1.1 3.44 1.09c3.14.89 6.2 1.5 9.43 1.97v1c-6.11.1-11.93-.23-18-1l2-1v-2h-3z"/><path fill="#535354" d="m131 43 5 1v2l1.88.88C140 48 140 48 142 50l-7 1v-2l-3-1 1-4z"/><path fill="#df925e" d="M62 142c3.9 1.65 6.79 4.27 10 7l3 2h-7v-2h-3z"/><path fill="#fae5d2" d="M43 140c7.37 5.9 7.37 5.9 8 10l-7-1z"/><path fill="#56575a" d="M160 96h1c-.35 9.17-.35 9.17-3.06 12.63L156 110l-2-1 1-5h3z"/><path fill="#494948" d="m66 123-2 1 1 3-4 2c-1.5-1.31-1.5-1.31-3-3v-3c2.86-1.43 4.93-.6 8 0"/><path fill="#e4e4e7" d="M46 86h1l1 19h-2l-2 3q-.06-3 0-6l1-1q.35-3.78.56-7.56l.13-2.16z"/><path fill="#ec7e39" d="M63 147h2v2h3a101 101 0 0 1-2 6l-2 1-3-1v-5l2-1z"/><path fill="#fad6b8" d="M27 100h1l4 20-3-1-.44-3.44c-.17-3.37-.17-3.37-1.56-4.56a110 110 0 0 1-.06-5.56l.02-3.07z"/><path fill="#f9d5b9" d="m76 164 17 4v1H81l-1-2c-2.02-1.13-2.02-1.13-4-2z"/><path fill="#525358" d="M98 146c3.06-.25 3.06-.25 6 0l1 1q2.02.34 4.06.56l3.94.44v1H96z"/><path fill="#d2d4d1" d="m52 63 2 1-.81 2.38A498 498 0 0 0 49 80c-1.03-3.1-.97-4.53-.56-7.69l.3-2.45L49 68h2z"/><path fill="#5e605f" d="m76 138 2 2c2.07.64 2.07.64 4 1l-1 1 3 1v2c-6.75-1.87-6.75-1.87-9-3v-2l-3-1c1.88-.62 1.88-.62 4-1"/><path fill="#f3f3f0" d="m61 135 7 1 1 3-4 2v-2l-4-1z"/><path fill="#565857" d="M155 113h2a25.4 25.4 0 0 1-6 11l-1-7 1.94-.87c2.21-.96 2.21-.96 3.06-3.13"/><path fill="#fbdfc2" d="M27 69h3a669 669 0 0 1-2 15h-1z"/><path fill="#d4d6d6" d="M154 119c1.53 3.07.55 5.7 0 9l-6 1 2.44-4.44 1.37-2.5C153 120 153 120 154 119"/><path fill="#58595b" d="m157 80 4 2v8c-3.01-2.01-3.84-2.7-5-6 .38-2.25.38-2.25 1-4"/><path fill="#fbefdf" d="m44 69 3 1-1.44 3.5C43.98 77.69 43.4 81.55 43 86h-1c-.22-6.1-.01-11.22 2-17"/><path fill="#fbe6d0" d="m55 29 1 3-1.46 1.24-1.91 1.63-1.9 1.62A76 76 0 0 0 47 40v-4h3l.25-1.81c.96-2.79 2.32-3.62 4.75-5.19"/><path fill="#f6f5f9" d="M101 33v1c-5.2 2.2-8.58 1.93-14 1 5.2-3.47 8.09-2.87 14-2"/><path fill="#e19667" d="M44 140h2l2 3 2.56.88L53 145c.81 2.63.81 2.63 1 5l-3.87-2.75-2.19-1.55A13.3 13.3 0 0 1 44 140"/><path fill="#df8b58" d="M49 55c0 4.25-1.82 6.39-4 10h-1c-.31-3.31-.31-3.31 0-7 2.5-1.94 2.5-1.94 5-3"/><path fill="#e1e2e4" d="M91.38 50.31 93 51l-2 1 3 2q-2.19.33-4.37.63l-2.46.35L85 55l-2-2c5.42-3.08 5.42-3.08 8.38-2.69"/><path fill="#eeedec" d="M72 141c3.38.55 5.08 1.06 8 3v2l-5 1v-3l-3-1z"/><path fill="#df915d" d="M58 46c0 2 0 2-2.37 4.63C53 53 53 53 51 53l-1 2c.49-5.49.49-5.49 2.88-7.87C55 46 55 46 58 46"/><path fill="#656668" d="M116 49h10l1 5c-3.72-1.21-7.38-2.5-11-4z"/><path fill="#424444" d="M76 44v4h-2l-1 2a181 181 0 0 1-4 4c-.31-2.19-.31-2.19 0-5 4.22-5 4.22-5 7-5"/><path fill="#e1dfdb" d="m80 36 8 1a40 40 0 0 1-8.19 4.13l-2.73 1.06L75 43v-3l6-1z"/><path fill="#fce0c6" d="M85 17a26 26 0 0 1-7.5 3.56l-2.34.76L73 22l-3 1c1-3 1-3 2.64-3.95C76.9 17.51 80.38 16.65 85 17"/><path fill="#e4e8e9" d="m75 121 2 1 3 1-2 5-1-2a78 78 0 0 0-5-2z"/><path fill="#e8e8ea" d="M64 111h5l1 6-3 1z"/><path fill="#faebdf" d="M64 160h5l2 4-7-1z"/><path fill="#e7ebeb" d="m96 132-3 1v2c-5.75-.75-5.75-.75-8-3 3.98-1.05 6.98-.84 11 0"/><path fill="#434341" d="m65 56 6 1v2h-3l-1 3-4-1z"/><path fill="#6b6c6e" d="M149 87h1l1.07 8.98C151 99 151 99 148 103z"/><path fill="#555558" d="m84 50-3 3 2 1-4 2-1-2h-2v-2c4.39-3.2 4.39-3.2 8-2"/><path fill="#f9dac7" d="M79 33v3l-10 2c1.9-3.79 5.97-5 10-5"/><path fill="#f6cbad" d="m51 148 4.44 2.88 2.5 1.61C60 154 60 154 61 156l-9-3z"/><path fill="#464646" d="m146 58 4 1v5l-4-2z"/><path fill="#434345" d="m139 56 2 1v8l-4-3z"/><path fill="#e49564" d="m53 133 7 6-1 2h-2v-3l-4-1z"/><path fill="#d99160" d="M47 124c4 4.75 4 4.75 4 7h2l-1 2-4-1z"/><path fill="#cbcbcc" d="M55 122c2.5 2.31 2.5 2.31 5 5v3c-2.5-1.19-2.5-1.19-5-3-.31-2.69-.31-2.69 0-5"/><path fill="#f7d7bc" d="M38 132c2.72 2.35 3.81 4.63 5 8h-3c-1.76-3.09-2-4.23-2-8"/><path fill="#5b585a" d="M63 128c2.13.94 2.13.94 4 2l-2 4-4-5z"/><path fill="#fdeac7" d="M43 112h2l3 9h-2c-3-6.75-3-6.75-3-9"/><path fill="#ea843f" d="M39 71h2l-2 9h-2c-.25-5.62-.25-5.62 2-9"/><path fill="#565758" d="M142 61h4v2l-4 2zm-4 2 4 2-1 2-3-2z"/><path fill="#f9e2d5" d="m109 17 3 1v7h-3z"/><path fill="#f7cfad" d="M70 147c4.4.5 6.71 2.09 10 5a21.6 21.6 0 0 1-10-4z"/><path fill="#434343" d="m134 127 4 2-1 3-5 1z"/><path fill="#e8e8e8" d="m61 98 3 1-1 9c-2-4-2.2-5.7-2-10"/><path fill="#e2e3e5" d="m66 68 6 3-3 4-1-2h-3z"/><path fill="#ecf4f6" d="m57 54-1 6-3-1v-4c2-1 2-1 4-1"/><path fill="#f5f0e4" d="m32 50 1 2h3l-1 6h-2z"/><path fill="#e08548" d="m59 140 5 5-2 4z"/><path fill="#dad6da" d="m61 130 7 5-2 1-2-1-1 2z"/><path fill="#faddbb" d="m47 61 1 4h-2l1 4h-3c1.88-6.87 1.88-6.87 3-8"/><path fill="#d6d7d9" d="M72 61c.69 1.81.69 1.81 1 4-1.44 1.75-1.44 1.75-3 3l-3-1z"/><path fill="#5f5f5e" d="M58 58c1 2 1 2 .25 4.56C57 65 57 65 54 66a37 37 0 0 1 4-8"/><path fill="#e8e9eb" d="m115 49 4 1-1 4-6 1 4-3z"/></svg>